<svg id="Layer_1" data-name="Layer 1" xmlns="http://www.w3.org/2000/svg" viewBox="0 0 40 40"><defs><style>.cls-1{fill:#231f20;}.cls-2{fill:#fff;}</style></defs><title>aug8MosaicIconscut</title><path class="cls-1" d="M13.42,19.4,19.33,7.15S21.39,4.63,23.46,5L17.58,17.46l12.58-5.28s.73,2.46-2.22,4.14-12.41,5.33-12.41,5.33a21,21,0,0,1-2.06,4.46,1.27,1.27,0,0,0,.17,1.71c2.78,1.12,2.9,7.23-2,7.18s-4.31-5.76-1.43-7.37,2.55-5.44,2.55-5.44S9,21.84,7.34,24.71,0,28,0,23.15s6.14-4.66,7.22-1.87a1.27,1.27,0,0,0,1.71.2C10.08,20.91,12.15,19.61,13.42,19.4Z"/><circle class="cls-2" cx="11.84" cy="31.16" r="2.49" transform="translate(-0.19 0.07) rotate(-0.36)"/><circle class="cls-2" cx="3.83" cy="23.17" r="2.49" transform="translate(-0.14 0.02) rotate(-0.36)"/></svg>