<svg xmlns="http://www.w3.org/2000/svg" viewBox="0 0 240 660"><defs><style>.cls-1{fill:#c8d2cd;}.cls-2{font-size:14px;font-family:ArialMT, Arial;}.cls-2,.cls-3{fill:#5b5d5e;}.cls-4{fill:#fff;stroke:#5b5d5e;stroke-miterlimit:10;stroke-width:1.52px;}</style></defs><title>tagPaneleftTab</title><g id="Layer_6" data-name="Layer 6"><path class="cls-1" d="M45,380h70a5,5,0,0,1,5,5v15a0,0,0,0,1,0,0H40a0,0,0,0,1,0,0V385A5,5,0,0,1,45,380Z"/><text class="cls-2" transform="translate(51.06 394.3)">Columns</text><rect class="cls-3" x="140" y="400" width="5" height="40" rx="2.5" ry="2.5"/><path class="cls-4" d="M220,42.14V640H20V25.54A5.55,5.55,0,0,1,25.56,20H94.44A5.55,5.55,0,0,1,100,25.54V42.14Z"/></g></svg>